<?xml version="1.0" encoding="utf-8"?>
<!-- Generator: Adobe Illustrator 22.0.0, SVG Export Plug-In . SVG Version: 6.00 Build 0)  -->
<svg version="1.1" id="Layer_1" xmlns="http://www.w3.org/2000/svg" xmlns:xlink="http://www.w3.org/1999/xlink" x="0px" y="0px"
	 viewBox="0 0 488.7 109.3" style="enable-background:new 0 0 488.7 109.3;" xml:space="preserve">
<style type="text/css">
	.st0{fill:#B36810;}
	.st1{fill:#C47212;}
	.st2{fill:#E69632;}
	.st3{opacity:0.15;enable-background:new    ;}
	.st4{fill:#D77D14;}
	.st5{fill:#FFAE55;}
	.st6{font-family:'ClarendonBT-Roman';}
	.st7{font-size:92.61px;}
	.st8{letter-spacing:-12;}
	.st9{letter-spacing:-5;}
</style>
<title>stoc</title>
<g>
	<g id="OBJECTS">
		<polygon class="st0" points="52.5,0 101,15.5 101,86.5 52.5,71.1 		"/>
		<polygon class="st1" points="52.5,0 7.9,15.5 7.9,86.5 52.5,71.1 		"/>
		<polygon class="st2" points="56.4,101.9 7.9,86.4 7.9,15.4 56.4,30.9 		"/>
		<polygon class="st3" points="7.9,25.3 7.9,45.9 50.5,59.5 56.4,40.7 56.4,30.9 9.9,18.8 		"/>
		<polygon class="st4" points="56.4,101.9 101,86.4 101,15.4 56.4,30.9 		"/>
		<polygon class="st3" points="56.4,30.9 56.4,40.4 61.8,57.9 101,44.3 101,24.9 98.3,16.3 		"/>
		<polygon class="st2" points="63.6,54.7 108.2,39.2 101,15.4 56.4,30.9 		"/>
		<polygon class="st5" points="48.5,56 0,40.5 7.9,15.4 56.4,30.9 		"/>
		<text transform="matrix(1 0 0 1 112.22 87.47)" class="st6 st7">S.</text>
		<text transform="matrix(1 0 0 1 200.76 87.47)" class="st6 st7 st8">T</text>
		<text transform="matrix(1 0 0 1 251.63 87.47)" class="st6 st7">.</text>
		<text transform="matrix(1 0 0 1 280.52 87.47)" class="st6 st7 st9">O</text>
		<text transform="matrix(1 0 0 1 350.21 87.47)" class="st6 st7">.C </text>
	</g>
</g>
</svg>
